{"title":"Maroon 5 Ft. Christina Aguilera - Moves Like Jagger [Music Video","uid":9270559,"size":57897430,"categoryP":"video","categoryS":"music_videos","magnet":"?xt=urn:btih:2ace1f2aae6a5289fbd8fb6cff26e02a927fe0c3&amp;dn=Maroon+5+Ft.+Christina+Aguilera+-+Moves+Like+Jagger+%5BMusic+Video&amp;tr=udp%3A%2F%2Ftracker.openbittorrent.com%3A80&amp;tr=udp%3A%2F%2Fopen.demonii.com%3A1337&amp;tr=udp%3A%2F%2Ftracker.coppersurfer.tk%3A6969&amp;tr=udp%3A%2F%2Fexodus.desync.com%3A6969","seeders":1,"leechers":0,"uploader":"Sbyky","files":1,"time":1385769264,"description":"\n\nGeneral\nComplete name                            : Maroon 5 Ft. Christina Aguilera - Moves Like Jagger [Music Video] 720p [Sbyky].MP4\nFormat                                   : MPEG-4\nFormat profile                           : Base Media\nCodec ID                                 : isom\nFile size                                : 55.2 MiB\nDuration                                 : 4mn 38s\nOverall bit rate mode                    : Variable\nOverall bit rate                         : 1 662 Kbps\nEncoded date                             : UTC 2013-11-12 05:31:35\nTagged date                              : UTC 2013-11-12 05:31:35\n\nVideo\nID                                       : 1\nFormat                                   : AVC\nFormat/Info                              : Advanced Video Codec\nFormat profile                           : &lt;a class=&quot;__cf_email__&quot; href=&quot;/cdn-cgi/l/email-protection&quot; data-cfemail=&quot;d39eb2babd939fe0fde2&quot;&gt;[email&amp;#160;protected]&lt;/a&gt;&lt;script cf-hash='f9e31' type=&quot;text/javascript&quot;&gt;\n/* &lt;![CDATA[ */!function(){try{var t=&quot;currentScript&quot;in document?document.currentScript:function(){for(var t=document.getElementsByTagName(&quot;script&quot;),e=t.length;e--;)if(t[e].getAttribute(&quot;cf-hash&quot;))return t[e]}();if(t&amp;&amp;t.previousSibling){var e,r,n,i,c=t.previousSibling,a=c.getAttribute(&quot;data-cfemail&quot;);if(a){for(e=&quot;&quot;,r=parseInt(a.substr(0,2),16),n=2;a.length-n;n+=2)i=parseInt(a.substr(n,2),16)^r,e+=String.fromCharCode(i);e=document.createTextNode(e),c.parentNode.replaceChild(e,c)}}}catch(u){}}();/* ]]&gt; */&lt;/script&gt;\nFormat settings, CABAC                   : Yes\nFormat settings, ReFrames                : 3 frames\nCodec ID                                 : avc1\nCodec ID/Info                            : Advanced Video Coding\nDuration                                 : 4mn 38s\nBit rate                                 : 1 405 Kbps\nWidth                                    : 1 280 pixels\nHeight                                   : 720 pixels\nDisplay aspect ratio                     : 16:9\nFrame rate mode                          : Variable\nFrame rate                               : 23.976 fps\nMinimum frame rate                       : 23.974 fps\nMaximum frame rate                       : 3 000.000 fps\nColor space                              : YUV\nChroma subsampling                       : 4:2:0\nBit depth                                : 8 bits\nScan type                                : Progressive\nBits/(Pixel*Frame)                       : 0.064\nStream size                              : 46.7 MiB (85%)\nEncoded date                             : UTC 2013-11-12 05:31:35\nTagged date                              : UTC 2013-11-12 05:31:35\n\nAudio\nID                                       : 2\nFormat                                   : AAC\nFormat/Info                              : Advanced Audio Codec\nFormat profile                           : LC\nCodec ID                                 : 40\nDuration                                 : 4mn 38s\nBit rate mode                            : Variable\nBit rate                                 : 254 Kbps\nChannel(s)                               : 2 channels\nChannel positions                        : Front: L R\nSampling rate                            : 44.1 KHz\nCompression mode                         : Lossy\nDelay relative to video                  : 42ms\nStream size                              : 8.43 MiB (15%)\nEncoded date                             : UTC 2013-11-12 05:30:58\nTagged date                              : UTC 2013-11-12 05:30:58\n\nShared By Sbyky\n","torrent":{"xt":"urn:btih:2ace1f2aae6a5289fbd8fb6cff26e02a927fe0c3","amp;dn":"Maroon+5+Ft.+Christina+Aguilera+-+Moves+Like+Jagger+%5BMusic+Video","amp;tr":["udp%3A%2F%2Ftracker.openbittorrent.com%3A80","udp%3A%2F%2Fopen.demonii.com%3A1337","udp%3A%2F%2Ftracker.coppersurfer.tk%3A6969","udp%3A%2F%2Fexodus.desync.com%3A6969"],"infoHash":"2ace1f2aae6a5289fbd8fb6cff26e02a927fe0c3","infoHashBuffer":{"type":"Buffer","data":[42,206,31,42,174,106,82,137,251,216,251,108,255,38,224,42,146,127,224,195]},"announce":[],"urlList":[]}}